HIERARCHY
ROOT Hip
{
    OFFSET 0.0 0.0 0.0
    CHANNELS 6 Xposition Yposition Zposition Zrotation Xrotation Yrotation
    JOINT RightHip
    {
        OFFSET -6.7594507443948135 0.0 0.0
        CHANNELS 3 Zrotation Xrotation Yrotation
        JOINT RightKnee
        {
            OFFSET 0.0 0.0 -23.21589475084994
            CHANNELS 3 Zrotation Xrotation Yrotation
            JOINT RightAnkle
            {
                OFFSET 0.0 0.0 -29.488285203049124
                CHANNELS 3 Zrotation Xrotation Yrotation
                End Site
                {
                    OFFSET 0.0 -11.79531408121965 0.0
                }
            }
        }
    }
    JOINT LeftHip
    {
        OFFSET 6.7594507443948135 0.0 0.0
        CHANNELS 3 Zrotation Xrotation Yrotation
        JOINT LeftKnee
        {
            OFFSET 0.0 0.0 -23.21589475084994
            CHANNELS 3 Zrotation Xrotation Yrotation
            JOINT LeftAnkle
            {
                OFFSET 0.0 0.0 -29.488285203049124
                CHANNELS 3 Zrotation Xrotation Yrotation
                End Site
                {
                    OFFSET 0.0 -11.79531408121965 0.0
                }
            }
        }
    }
    JOINT Spine
    {
        OFFSET 0.0 0.0 19.316425965024855
        CHANNELS 3 Zrotation Xrotation Yrotation
        JOINT Thorax
        {
            OFFSET 0.0 0.0 22.150291245062046
            CHANNELS 3 Zrotation Xrotation Yrotation
            JOINT Neck
            {
                OFFSET 0.0 0.0 2.8115773475813923
                CHANNELS 3 Zrotation Xrotation Yrotation
                JOINT Head
                {
                    OFFSET 0.0 0.0 8.365010248012371
                    CHANNELS 3 Zrotation Xrotation Yrotation
                    End Site
                    {
                        OFFSET -3.346004099204948 0.0 0.0
                    }
                }
            }
            JOINT LeftShoulder
            {
                OFFSET 12.333154039147121 0.0 0.0
                CHANNELS 3 Zrotation Xrotation Yrotation
                JOINT LeftElbow
                {
                    OFFSET 22.28463777827716 0.0 0.0
                    CHANNELS 3 Zrotation Xrotation Yrotation
                    JOINT LeftWrist
                    {
                        OFFSET 14.662686346712308 0.0 0.0
                        CHANNELS 3 Zrotation Xrotation Yrotation
                        End Site
                        {
                            OFFSET 5.865074538684924 0.0 0.0
                        }
                    }
                }
            }
            JOINT RightShoulder
            {
                OFFSET -12.333154039147121 0.0 0.0
                CHANNELS 3 Zrotation Xrotation Yrotation
                JOINT RightElbow
                {
                    OFFSET -22.28463777827716 0.0 0.0
                    CHANNELS 3 Zrotation Xrotation Yrotation
                    JOINT RightWrist
                    {
                        OFFSET -14.662686346712308 0.0 0.0
                        CHANNELS 3 Zrotation Xrotation Yrotation
                        End Site
                        {
                            OFFSET -5.865074538684924 0.0 0.0
                        }
                    }
                }
            }
            JOINT Nose
            {
                OFFSET 0.0 0.0 7.981031305081574
                CHANNELS 3 Zrotation Xrotation Yrotation
                End Site
                {
                    OFFSET -3.1924125220326296 0.0 0.0
                }
            }
        }
    }
}
MOTION
Frames: 12
Frame Time: 0.03333333333333333
17.200920734785548 42.96110374797008 6.786876112829897 -22.510371205634556 -2.596965409490269 6.820169503582927 -12.949587691782524 -16.454386117183823 6.267268694924942 3.224408247434815 31.05494384332488 -9.443254869030199 0.0 -1.5902773407317584e-15 0.0 2.852167392157128 -3.7712358157382924 -3.6758542640710528 -8.707016312158409 17.364173377949683 11.460831024190181 0.0 0.0 -3.975693351829396e-16 -5.513364190942887e-17 7.420758583047598 8.501847675295564e-16 4.592163132695378 0.003155922586896663 -0.1808039254282099 5.376916802440024 -3.5275377252497013 27.418419723352958 6.207055731633036e-33 3.9756933518293955e-16 -1.789062008323228e-15 -81.542519436011 -77.4469022237907 -51.60566366785183 -2.20628188478216e-15 2.7887686076665526e-15 -50.172655633356186 0.0 0.0 0.0 77.9381834408466 41.57229271159849 0.0663078148587165 4.843723009385703e-15 4.419393822223853e-15 112.82689031465334 -3.1805546814635168e-15 0.0 0.0 0.0 0.0 0.0
17.237920746907147 43.05351515919283 6.765073175322812 -21.4708037804914 -2.3877227060949524 6.892618441783389 -9.499387659514285 -17.948017385905796 8.764695887540354 -1.2588955927531884 33.57769923241948 -10.069461755756118 0.0 0.0 0.0 4.659667332848047 -3.8833416822510065 -4.035195153920857 -10.578932205024993 17.105171646481452 11.73628143287812 3.1805546814635168e-15 4.4139062980501586e-32 1.5902773407317584e-15 1.854134114135408e-17 7.075797980141628 -2.998927003341527e-16 3.6781174010193216 0.014719303113661333 -0.4179728144255734 4.7483852354321545 -3.9527332495916196 30.973108490758925 0.0 0.0 9.93923337957349e-16 -79.96226288855631 -77.42368996375198 -49.89012026179653 -3.921992130089979e-15 2.892524765192582e-15 -49.282022886063245 0.0 0.0 0.0 73.66680258393676 43.74115023105461 1.069131881794298 -1.0511687991740079e-14 2.1880521619192788e-14 114.53547819370716 3.1805546814635164e-15 6.361109362927033e-15 -1.7655625192200634e-31 0.0 0.0 1.987846675914698e-16
17.2733787762465 43.14207530667759 6.744178879524487 -19.093419274375485 -1.670433987613199 5.1843125133265495 -9.658580767343034 -19.979047046126812 11.064151173611803 -0.6754037549034317 35.64602333479775 -12.932164832471958 0.0 0.0 0.0 4.8954411905196435 -5.154336685343987 -4.724691300827561 -11.099238803555274 17.530866725757072 12.731091031259632 0.0 0.0 3.975693351829396e-16 6.417260624209573e-15 6.483171154422005 -8.114352803681245e-16 1.1861498128483074 -0.04765082785059828 0.7405530923572166 4.361916534812626 -3.941857689665776 33.75117073301046 0.0 0.0 -9.93923337957349e-16 -77.65595532701131 -77.45286983604866 -45.86936090024202 -3.596963795335299e-15 -2.0425463121112883e-15 -50.384409719949986 -2.385416011097637e-15 0.0 0.0 71.03124032315415 42.54412239952571 1.1295522972047087 3.377244590386995e-15 5.390540910133207e-15 115.86463307287805 3.1805546814635168e-15 0.0 0.0 3.1805546814635168e-15 5.517382872562698e-33 1.987846675914698e-16
17.798849717267164 44.454494098776266 6.43453546505178 -17.7531324588356 -1.1753503407697619 5.515071574997273 -6.571020509566324 -22.40967941758429 14.68069604249162 -0.6258806284925682 38.47694301418935 -17.142500978665474 0.0 0.0 0.0 9.217736363561484 -6.253860522565234 -5.022315719554772 -16.686869752909487 16.339974821043075 13.931417889253702 0.0 0.0 0.0 3.2856803979745895e-15 5.8772595881121665 -1.96630429933396e-15 -0.8886148652559678 -0.0028585469712377083 0.03826514604457818 3.897721825620787 -3.793886538194808 35.087277770689 -1.5902773407317584e-15 1.6552148617688095e-32 -1.1927080055488188e-15 -75.13553395530766 -77.49606754430579 -43.652869496288695 -4.31592839165857e-15 -5.4388860884197485e-15 -50.38518787826109 0.0 0.0 0.0 69.2105077316681 40.34894283611366 1.6205063821769303 2.2032960637917898e-15 6.1756117755929606e-15 112.6573829932466 -3.1805546814635168e-15 -4.4139062980501586e-32 1.5902773407317584e-15 0.0 7.951386703658791e-16 0.0
17.9296358274378 44.781146127145384 6.357467344709715 -16.51654798224416 -1.247425983805803 7.329788689210051 -1.077519359340751 -25.7431491683037 18.370991550611453 -6.41741912092904 44.619945691943634 -17.08815483565309 0.0 0.0 0.0 14.125764800881868 -6.643721293924333 -4.122101402086798 -21.331429838835646 16.095081234828307 13.742156435764958 0.0 0.0 3.975693351829396e-16 3.149494538317807e-15 6.021425797713917 6.741334250638956e-16 -1.6662748249033716 0.11403946694585444 -1.601919119359882 3.063718863903449 -4.230267923303339 38.73940678595833 1.5902773407317584e-15 1.3793457181406746e-32 9.93923337957349e-16 -73.8654568421116 -77.47286437790696 -43.198571467690215 -9.441431132249325e-15 6.108066731563834e-15 -49.54091624188954 0.0 0.0 -7.951386703658792e-16 67.32315573417667 39.740357952927816 2.0789799939744533 -1.3205495846402465e-15 8.8607607740608e-16 112.27753701952423 0.0 0.0 0.0 0.0 0.0 1.987846675914698e-16
18.046931481926865 45.074104327429396 6.288348723443507 -16.654370525881713 -1.4507223783291507 9.646020195092749 3.510494785769656 -28.87677506026188 20.885138447663206 -10.80818787894789 50.21047253876384 -15.60465163938205 6.3611093629270335e-15 -9.93923337957349e-17 5.517382872562698e-33 19.135725600170137 -7.364664937416242 -3.1108821278486296 -28.588123210674322 17.45706288494934 15.414475420776872 3.1805546814635168e-15 3.975693351829396e-16 -7.951386703658792e-16 6.379879518953288e-15 6.1722825494229365 -1.7678371664489786e-16 -1.8168671438427813 0.2528439029502977 -3.585419497865769 2.6876445249813843 -4.684432836335156 33.396220350743015 1.5902773407317588e-15 -1.1862373176009802e-31 -8.547740706433203e-15 -72.4366753253416 -77.28429134389559 -43.159094301313615 -3.9746929131504535e-15 -3.0029073115510715e-15 -48.63649463757252 -1.5902773407317588e-15 0.0 0.0 61.575051518402844 42.8138013428369 3.956904635183352 2.8862976506030372e-15 1.3277235155129213e-14 114.35883859486032 -3.1805546814635168e-15 -2.2069531490250793e-32 7.951386703658792e-16 0.0 0.0 1.987846675914698e-16
18.04966160302132 45.08092309122652 6.286739949386526 -16.40694328550848 -1.713469009410319 10.839251809192007 8.8186266705354 -29.70857594525204 22.79874993376041 -21.54203185939348 54.633482570327125 -9.777495919490303 0.0 0.0 0.0 22.95061954227501 -8.592855076772745 -1.9875627409524128 -31.5726717892226 18.74119445543794 15.900531532179567 1.3793457181406746e-33 3.9756933518293955e-16 -3.9756933518293955e-16 -3.302974106261182e-15 6.597978756584655 2.032200199728664e-15 -1.2487257499973121 0.23115805910230353 -4.947537818666705 1.6739681818512795 -5.202198591021657 34.117376499034805 0.0 0.0 1.1927080055488188e-15 -74.04752542505403 -77.6950343376234 -44.94747080384799 6.8521018529810075e-15 1.7759945034932621e-15 -47.25300763483716 0.0 0.0 0.0 62.87210367660037 37.935524364472926 3.174019732326992 6.239411982368921e-15 3.4131185920164843e-15 110.48968615361528 -3.1805546814635168e-15 2.2069531490250793e-32 -7.951386703658792e-16 0.0 0.0 1.987846675914698e-16
17.882707610384912 44.66393798273256 6.385120659534597 -16.348456629531906 -1.811165910395312 11.018932383199212 10.511024991913223 -30.22997028083885 21.570211940410903 -25.959504030946903 55.865359920472926 -5.740848441664788 0.0 0.0 0.0 25.954903821487644 -10.009889551815125 -0.5856074823451008 -34.79437141097253 20.70914786668722 16.824485009434973 0.0 7.951386703658791e-16 0.0 -1.955853482034293e-16 6.905413720495397 3.241702062468545e-15 -1.7409531398531006 0.23107411630566163 -5.431513651231889 1.6662075370085752 -5.1867873493283465 27.50377408203433 0.0 0.0 -2.1866313435061676e-15 -74.47951623957503 -78.242547734054 -46.44323761408251 -9.673787053594764e-15 -2.2817108088734932e-15 -47.196742886876265 0.0 0.0 0.0 62.13029015659334 39.256567276557895 3.5369918379323417 8.82014706755468e-15 1.7698673286273514e-15 112.6927848210602 3.1805546814635168e-15 -2.2069531490250793e-32 -7.951386703658792e-16 2.758691436281349e-33 -7.951386703658792e-16 3.975693351829396e-16
17.69366268546814 44.191778453739886 6.4965188577418385 -17.147104448580944 -1.8842518464466669 9.791146421485749 11.493829147136614 -29.529914763216148 20.6500398261025 -23.956610299022945 53.95308853302887 -7.4205257373052405 0.0 0.0 7.951386703658791e-16 28.212809977031643 -10.118161425832223 0.22102692587717296 -36.30105730118845 20.75382900227022 16.368117465130258 0.0 0.0 -3.975693351829396e-16 -3.302763713535037e-15 6.833335835296193 1.952093711840306e-15 -0.3004587739461688 0.10286920276092586 -4.79897737916346 0.947216977249688 -5.283359295295002 27.168531865781404 0.0 0.0 6.957463365701443e-16 -75.52472773518909 -78.86020200368976 -47.08890850561655 -7.000862709474502e-15 -6.313313720645045e-15 -46.02448814412511 0.0 0.0 0.0 62.71722041375221 31.23163419730977 2.571286768074345 4.34709185343325e-15 1.2600149973475181e-14 107.22275601800125 -3.1805546814635168e-15 -2.2069531490250793e-32 7.951386703658792e-16 0.0 0.0 1.987846675914698e-16
17.979295247678323 44.90517573799656 6.328204618184545 -16.208826455288506 -1.4878966952239105 8.703500937116013 9.343366381509334 -29.09243086754714 19.84266011575878 -19.29788679241339 51.65725310854561 -10.412429897735285 0.0 -1.2424041724466862e-17 0.0 26.312085878408848 -9.733058547169604 -0.4703183415752395 -32.83093756526222 18.629003644543623 14.946555494072577 0.0 0.0 0.0 1.1713705817214842e-16 6.858202840511458 -1.954868937353451e-15 -0.8474694081640293 0.008114506057307428 -4.032422774113174 0.4842831395682556 -4.663278879219478 28.486636459224442 0.0 0.0 1.1927080055488188e-15 -76.82497049896057 -78.79170480661939 -47.602329406942765 5.355294742769425e-16 5.380944414651996e-15 -45.57255943809263 7.951386703658792e-16 0.0 0.0 64.79826433707217 33.426826678277536 2.3634363756207635 8.863047762230122e-15 1.5407170469179645e-15 109.72304789402989 -3.1805546814635168e-15 4.4139062980501586e-32 -1.5902773407317584e-15 2.758691436281349e-33 7.951386703658791e-16 -3.9756933518293955e-16
17.94082358883122 44.80908873471512 6.350874750585603 -17.11583512589976 -1.2980798109976126 7.168856784921925 4.706439385698353 -25.736777503005392 16.162781855830048 -9.420118824604637 45.96693462409897 -15.276653165720424 0.0 0.0 0.0 23.273417222486525 -9.278538217686801 -1.7059952366953093 -27.882142210647576 17.797419651513998 13.89412630940987 0.0 0.0 0.0 -3.1557585202462513e-15 6.620809871625599 -5.205967507929946e-16 0.5241520454342081 -0.02068826858779264 -2.3543521560745897 -0.01210526682671197 -3.640065835580744 29.869709729423914 0.0 0.0 2.1866313435061676e-15 -78.15452482291639 -78.73854724995712 -47.67811173711725 2.147952711261677e-15 -3.0746969995282827e-15 -46.11370066051261 -7.951386703658792e-16 -6.3611093629270335e-15 -7.951386703658792e-16 64.78378942684492 41.97848294510136 2.478928979454235 1.981373607172155e-14 9.772890709816662e-15 113.02142172832987 0.0 0.0 -7.951386703658792e-16 0.0 0.0 -1.987846675914698e-16
17.896642806363676 44.698742596358926 6.376909089060636 -16.917180269535866 -1.155819317586782 5.012978476471441 -1.0013298673796045 -21.502123958045505 11.386021036407188 -2.8595633720138784 39.180192225292714 -15.429352557639396 0.0 0.0 0.0 18.05312544584749 -8.43471717326382 -2.532191785171324 -19.745283399866775 17.608095417044634 12.331261478962677 0.0 0.0 -7.951386703658792e-16 6.467454913127877e-15 6.651970375128405 -1.6452445068706147e-15 -0.6864972222865925 0.0018197362390977756 -0.7447244489548518 1.1281305483593402 -3.2157282460635974 27.763922729026365 0.0 0.0 7.951386703658792e-16 -76.80414384346842 -78.977987076156 -48.83013421564739 9.753120562098126e-15 1.1510213774783568e-14 -43.682307729635596 0.0 0.0 0.0 68.22588801626593 48.59094496136193 2.242569231465298 -8.224680702192061e-15 -9.835571090481033e-15 114.44408945671913 -3.1805546814635168e-15 0.0 0.0 0.0 0.0 0.0
